<svg width="13" height="13" xmlns="http://www.w3.org/2000/svg">
  <path d="M12.16 2.824l-.796.937-2.784-2.33.795-.937 2.784 2.33zM3.55 1.404L.795 3.76 0 2.824 2.756.466l.795.937zm2.841 2.784V7.34l2.415 1.42-.455.767-2.869-1.733V4.188h.909zm-4.205-.824c1.08-1.061 2.377-1.591 3.893-1.591 1.515 0 2.807.53 3.877 1.59 1.07 1.061 1.605 2.34 1.605 3.836s-.535 2.774-1.605 3.835c-1.07 1.06-2.362 1.591-3.877 1.591-1.516 0-2.808-.53-3.878-1.59C1.132 9.972.597 8.694.597 7.198s.53-2.775 1.59-3.835zm.881 6.818c.834.833 1.837 1.25 3.012 1.25 1.174 0 2.178-.412 3.01-1.236.834-.824 1.25-1.823 1.25-2.997 0-1.155-.416-2.15-1.25-2.983-.832-.833-1.836-1.25-3.01-1.25-1.175 0-2.178.417-3.012 1.25-.833.833-1.25 1.828-1.25 2.983s.417 2.15 1.25 2.983z" fill="#B3B3B3" fill-rule="evenodd"/>
</svg>
