<svg width="22" height="20" fill="none" xmlns="http://www.w3.org/2000/svg">
  <path d="M0 10A11 11 0 0 1 5.938.232l.5.867A10 10 0 0 0 1 10a9.996 9.996 0 0 0 5 8.662l-.5.866A10.996 10.996 0 0 1 0 10zM16.062.232l-.5.867A10 10 0 0 1 21 10a9.996 9.996 0 0 1-5 8.662l.5.866A10.996 10.996 0 0 0 22 10 11 11 0 0 0 16.062.232z" fill="#b3b3b3"/>
  <path d="M7.564 3.9A6.998 6.998 0 0 0 4 10a6.993 6.993 0 0 0 3.094 5.81l.553-.834A5.994 5.994 0 0 1 5 10c0-2.27 1.26-4.245 3.119-5.264L7.564 3.9zM13.881 4.736l.555-.836A6.998 6.998 0 0 1 18 10a6.993 6.993 0 0 1-3.094 5.81l-.553-.834A5.994 5.994 0 0 0 17 10c0-2.27-1.26-4.245-3.119-5.264z" fill="#b3b3b3"/>
  <path fill-rule="evenodd" clip-rule="evenodd" d="M11 13a3 3 0 1 0 0-6 3 3 0 0 0 0 6zm0-1a2 2 0 1 0 0-4 2 2 0 0 0 0 4z" fill="#b3b3b3"/>
</svg>
