<svg width="12" height="12" xmlns="http://www.w3.org/2000/svg">
  <path d="M12 11.281l-.719.719L7.75 8.469c-.854.687-1.854 1.031-3 1.031-1.313 0-2.432-.464-3.36-1.39C.465 7.181 0 6.062 0 4.75c0-1.313.464-2.432 1.39-3.36C2.319.465 3.438 0 4.75 0c1.313 0 2.432.464 3.36 1.39.926.928 1.39 2.047 1.39 3.36 0 1.125-.344 2.115-1.031 2.969L12 11.28zm-10.25-3.5C2.563 8.594 3.562 9 4.75 9c1.167 0 2.167-.417 3-1.25.833-.833 1.25-1.833 1.25-3s-.417-2.167-1.25-3C6.917.917 5.917.5 4.75.5s-2.167.417-3 1.25C.917 2.583.5 3.583.5 4.75c0 1.188.417 2.198 1.25 3.031z" fill="#000" fill-rule="evenodd"/>
</svg>
