<svg width="15" height="11" xmlns="http://www.w3.org/2000/svg">
  <g fill="#B3B3B3" fill-rule="evenodd">
    <path d="M.5 2.328c.736 0 1.444.246 1.942.673l1.024.878a.498.498 0 0 0 .705-.053.5.5 0 0 0-.054-.706l-1.023-.877C2.416 1.661 1.471 1.328.5 1.328a.5.5 0 0 0 0 1M11.314 2.33l-.018 1.327 2.853-1.79L11.345 0l-.017 1.33c-.965.004-1.903.335-2.577.913L2.442 7.655c-.498.428-1.207.674-1.942.674a.5.5 0 1 0 0 1c.971 0 1.916-.334 2.594-.915l6.309-5.412c.491-.421 1.186-.664 1.911-.671M11.328 8.327c-.73-.004-1.43-.248-1.925-.672l-1.041-.892a.5.5 0 1 0-.651.758l1.04.893c.67.575 1.604.905 2.563.912l-.017 1.33 2.852-1.79L11.346 7l-.018 1.327z"/>
  </g>
</svg>
